<mxfile host="app.diagrams.net" modified="2020-09-23T09:19:39.014Z" agent="5.0 (Windows NT 10.0; Win64; x64) AppleWebKit/537.36 (KHTML, like Gecko) Chrome/85.0.4183.121 Safari/537.36" etag="TNuDsbO9wQPFJ4_1i6TG" version="13.7.4" type="github">
  <diagram id="iZ0NQMaRfscMQcGJpgrA" name="Page-1">
    <mxGraphModel dx="1673" dy="941" grid="1" gridSize="10" guides="1" tooltips="1" connect="1" arrows="1" fold="1" page="1" pageScale="1" pageWidth="827" pageHeight="1169" math="0" shadow="0">
      <root>
        <mxCell id="0" />
        <mxCell id="1" parent="0" />
        <mxCell id="LHKDKkBrintWugJR4YR0-72" value="" style="rounded=0;whiteSpace=wrap;html=1;strokeColor=#FFFFFF;" vertex="1" parent="1">
          <mxGeometry width="820" height="870" as="geometry" />
        </mxCell>
        <mxCell id="LHKDKkBrintWugJR4YR0-1" value="" style="rounded=0;whiteSpace=wrap;html=1;" vertex="1" parent="1">
          <mxGeometry x="80" y="20" width="630" height="790" as="geometry" />
        </mxCell>
        <mxCell id="LHKDKkBrintWugJR4YR0-4" value="hat with auther img" style="rounded=0;whiteSpace=wrap;html=1;" vertex="1" parent="1">
          <mxGeometry x="80" y="20" width="570" height="130" as="geometry" />
        </mxCell>
        <mxCell id="LHKDKkBrintWugJR4YR0-5" value="u.logo" style="ellipse;whiteSpace=wrap;html=1;" vertex="1" parent="1">
          <mxGeometry x="580" y="20" width="130" height="130" as="geometry" />
        </mxCell>
        <mxCell id="LHKDKkBrintWugJR4YR0-13" value="" style="shape=process;whiteSpace=wrap;html=1;backgroundOutline=1;size=0.31746031746031744;" vertex="1" parent="1">
          <mxGeometry x="80" y="300" width="630" height="510" as="geometry" />
        </mxCell>
        <mxCell id="LHKDKkBrintWugJR4YR0-14" value="&lt;h1&gt;Tomething about u&lt;/h1&gt;&lt;p&gt;Lorem ipsum dolor sit amet, consectetur adipisicing elit, sed do eiusmod tempor incididunt ut labore et dolore magna aliqua.&lt;/p&gt;" style="text;html=1;strokeColor=none;fillColor=none;spacing=5;spacingTop=-20;whiteSpace=wrap;overflow=hidden;rounded=0;" vertex="1" parent="1">
          <mxGeometry x="90" y="160" width="600" height="130" as="geometry" />
        </mxCell>
        <mxCell id="LHKDKkBrintWugJR4YR0-15" value="&lt;font style=&quot;font-size: 19px&quot;&gt;PHOTO&lt;/font&gt;" style="text;html=1;strokeColor=none;fillColor=none;align=center;verticalAlign=middle;whiteSpace=wrap;rounded=0;" vertex="1" parent="1">
          <mxGeometry x="110" y="310" width="120" height="70" as="geometry" />
        </mxCell>
        <mxCell id="LHKDKkBrintWugJR4YR0-16" value="&lt;font style=&quot;font-size: 19px&quot;&gt;VIDEO&lt;/font&gt;" style="text;html=1;strokeColor=none;fillColor=none;align=center;verticalAlign=middle;whiteSpace=wrap;rounded=0;" vertex="1" parent="1">
          <mxGeometry x="330" y="310" width="120" height="70" as="geometry" />
        </mxCell>
        <mxCell id="LHKDKkBrintWugJR4YR0-17" value="&lt;font style=&quot;font-size: 19px&quot;&gt;TEXT&lt;/font&gt;" style="text;html=1;strokeColor=none;fillColor=none;align=center;verticalAlign=middle;whiteSpace=wrap;rounded=0;" vertex="1" parent="1">
          <mxGeometry x="550" y="310" width="120" height="70" as="geometry" />
        </mxCell>
        <mxCell id="LHKDKkBrintWugJR4YR0-18" value="" style="rounded=1;whiteSpace=wrap;html=1;" vertex="1" parent="1">
          <mxGeometry x="90" y="380" width="170" height="100" as="geometry" />
        </mxCell>
        <mxCell id="LHKDKkBrintWugJR4YR0-21" value="" style="rounded=1;whiteSpace=wrap;html=1;" vertex="1" parent="1">
          <mxGeometry x="305" y="380" width="170" height="100" as="geometry" />
        </mxCell>
        <mxCell id="LHKDKkBrintWugJR4YR0-22" value="" style="rounded=1;whiteSpace=wrap;html=1;" vertex="1" parent="1">
          <mxGeometry x="525" y="380" width="170" height="100" as="geometry" />
        </mxCell>
        <mxCell id="LHKDKkBrintWugJR4YR0-23" value="LOGO" style="rounded=1;whiteSpace=wrap;html=1;" vertex="1" parent="1">
          <mxGeometry x="90" y="380" width="90" height="100" as="geometry" />
        </mxCell>
        <mxCell id="LHKDKkBrintWugJR4YR0-25" value="VIEWS 1500" style="text;html=1;strokeColor=none;fillColor=none;align=center;verticalAlign=middle;whiteSpace=wrap;rounded=0;" vertex="1" parent="1">
          <mxGeometry x="180" y="390" width="80" height="20" as="geometry" />
        </mxCell>
        <mxCell id="LHKDKkBrintWugJR4YR0-28" value="" style="rounded=1;whiteSpace=wrap;html=1;" vertex="1" parent="1">
          <mxGeometry x="90" y="500" width="170" height="100" as="geometry" />
        </mxCell>
        <mxCell id="LHKDKkBrintWugJR4YR0-29" value="VIEWS 1500" style="text;html=1;strokeColor=none;fillColor=none;align=center;verticalAlign=middle;whiteSpace=wrap;rounded=0;" vertex="1" parent="1">
          <mxGeometry x="180" y="510" width="80" height="20" as="geometry" />
        </mxCell>
        <mxCell id="LHKDKkBrintWugJR4YR0-30" value="LOGO" style="rounded=1;whiteSpace=wrap;html=1;" vertex="1" parent="1">
          <mxGeometry x="90" y="500" width="90" height="100" as="geometry" />
        </mxCell>
        <mxCell id="LHKDKkBrintWugJR4YR0-31" value="" style="rounded=1;whiteSpace=wrap;html=1;" vertex="1" parent="1">
          <mxGeometry x="90" y="620" width="170" height="100" as="geometry" />
        </mxCell>
        <mxCell id="LHKDKkBrintWugJR4YR0-32" value="VIEWS 1500" style="text;html=1;strokeColor=none;fillColor=none;align=center;verticalAlign=middle;whiteSpace=wrap;rounded=0;" vertex="1" parent="1">
          <mxGeometry x="180" y="630" width="80" height="20" as="geometry" />
        </mxCell>
        <mxCell id="LHKDKkBrintWugJR4YR0-33" value="LOGO" style="rounded=1;whiteSpace=wrap;html=1;" vertex="1" parent="1">
          <mxGeometry x="90" y="620" width="90" height="100" as="geometry" />
        </mxCell>
        <mxCell id="LHKDKkBrintWugJR4YR0-34" value="" style="rounded=1;whiteSpace=wrap;html=1;" vertex="1" parent="1">
          <mxGeometry x="90" y="740" width="170" height="100" as="geometry" />
        </mxCell>
        <mxCell id="LHKDKkBrintWugJR4YR0-35" value="VIEWS 1500" style="text;html=1;strokeColor=none;fillColor=none;align=center;verticalAlign=middle;whiteSpace=wrap;rounded=0;" vertex="1" parent="1">
          <mxGeometry x="180" y="750" width="80" height="20" as="geometry" />
        </mxCell>
        <mxCell id="LHKDKkBrintWugJR4YR0-36" value="LOGO" style="rounded=1;whiteSpace=wrap;html=1;" vertex="1" parent="1">
          <mxGeometry x="90" y="740" width="90" height="100" as="geometry" />
        </mxCell>
        <mxCell id="LHKDKkBrintWugJR4YR0-39" value="LOGO" style="rounded=1;whiteSpace=wrap;html=1;" vertex="1" parent="1">
          <mxGeometry x="305" y="380" width="90" height="100" as="geometry" />
        </mxCell>
        <mxCell id="LHKDKkBrintWugJR4YR0-40" value="" style="rounded=1;whiteSpace=wrap;html=1;" vertex="1" parent="1">
          <mxGeometry x="305" y="380" width="170" height="100" as="geometry" />
        </mxCell>
        <mxCell id="LHKDKkBrintWugJR4YR0-41" value="VIEWS 1500" style="text;html=1;strokeColor=none;fillColor=none;align=center;verticalAlign=middle;whiteSpace=wrap;rounded=0;" vertex="1" parent="1">
          <mxGeometry x="395" y="390" width="80" height="20" as="geometry" />
        </mxCell>
        <mxCell id="LHKDKkBrintWugJR4YR0-45" value="" style="rounded=1;whiteSpace=wrap;html=1;" vertex="1" parent="1">
          <mxGeometry x="305" y="380" width="170" height="100" as="geometry" />
        </mxCell>
        <mxCell id="LHKDKkBrintWugJR4YR0-46" value="LOGO" style="rounded=1;whiteSpace=wrap;html=1;" vertex="1" parent="1">
          <mxGeometry x="305" y="380" width="90" height="100" as="geometry" />
        </mxCell>
        <mxCell id="LHKDKkBrintWugJR4YR0-47" value="VIEWS 1500" style="text;html=1;strokeColor=none;fillColor=none;align=center;verticalAlign=middle;whiteSpace=wrap;rounded=0;" vertex="1" parent="1">
          <mxGeometry x="395" y="390" width="80" height="20" as="geometry" />
        </mxCell>
        <mxCell id="LHKDKkBrintWugJR4YR0-51" value="" style="rounded=1;whiteSpace=wrap;html=1;" vertex="1" parent="1">
          <mxGeometry x="305" y="500" width="170" height="100" as="geometry" />
        </mxCell>
        <mxCell id="LHKDKkBrintWugJR4YR0-52" value="VIEWS 1500" style="text;html=1;strokeColor=none;fillColor=none;align=center;verticalAlign=middle;whiteSpace=wrap;rounded=0;" vertex="1" parent="1">
          <mxGeometry x="395" y="510" width="80" height="20" as="geometry" />
        </mxCell>
        <mxCell id="LHKDKkBrintWugJR4YR0-53" value="LOGO" style="rounded=1;whiteSpace=wrap;html=1;" vertex="1" parent="1">
          <mxGeometry x="305" y="500" width="90" height="100" as="geometry" />
        </mxCell>
        <mxCell id="LHKDKkBrintWugJR4YR0-54" value="" style="rounded=1;whiteSpace=wrap;html=1;" vertex="1" parent="1">
          <mxGeometry x="310" y="620" width="170" height="100" as="geometry" />
        </mxCell>
        <mxCell id="LHKDKkBrintWugJR4YR0-55" value="VIEWS 1500" style="text;html=1;strokeColor=none;fillColor=none;align=center;verticalAlign=middle;whiteSpace=wrap;rounded=0;" vertex="1" parent="1">
          <mxGeometry x="400" y="630" width="80" height="20" as="geometry" />
        </mxCell>
        <mxCell id="LHKDKkBrintWugJR4YR0-56" value="LOGO" style="rounded=1;whiteSpace=wrap;html=1;" vertex="1" parent="1">
          <mxGeometry x="310" y="620" width="90" height="100" as="geometry" />
        </mxCell>
        <mxCell id="LHKDKkBrintWugJR4YR0-57" value="" style="rounded=1;whiteSpace=wrap;html=1;" vertex="1" parent="1">
          <mxGeometry x="310" y="740" width="170" height="100" as="geometry" />
        </mxCell>
        <mxCell id="LHKDKkBrintWugJR4YR0-58" value="VIEWS 1500" style="text;html=1;strokeColor=none;fillColor=none;align=center;verticalAlign=middle;whiteSpace=wrap;rounded=0;" vertex="1" parent="1">
          <mxGeometry x="400" y="750" width="80" height="20" as="geometry" />
        </mxCell>
        <mxCell id="LHKDKkBrintWugJR4YR0-59" value="LOGO" style="rounded=1;whiteSpace=wrap;html=1;" vertex="1" parent="1">
          <mxGeometry x="310" y="740" width="90" height="100" as="geometry" />
        </mxCell>
        <mxCell id="LHKDKkBrintWugJR4YR0-60" value="" style="rounded=1;whiteSpace=wrap;html=1;" vertex="1" parent="1">
          <mxGeometry x="525" y="740" width="170" height="100" as="geometry" />
        </mxCell>
        <mxCell id="LHKDKkBrintWugJR4YR0-61" value="VIEWS 1500" style="text;html=1;strokeColor=none;fillColor=none;align=center;verticalAlign=middle;whiteSpace=wrap;rounded=0;" vertex="1" parent="1">
          <mxGeometry x="615" y="750" width="80" height="20" as="geometry" />
        </mxCell>
        <mxCell id="LHKDKkBrintWugJR4YR0-62" value="LOGO" style="rounded=1;whiteSpace=wrap;html=1;" vertex="1" parent="1">
          <mxGeometry x="525" y="740" width="90" height="100" as="geometry" />
        </mxCell>
        <mxCell id="LHKDKkBrintWugJR4YR0-63" value="" style="rounded=1;whiteSpace=wrap;html=1;" vertex="1" parent="1">
          <mxGeometry x="525" y="620" width="170" height="100" as="geometry" />
        </mxCell>
        <mxCell id="LHKDKkBrintWugJR4YR0-64" value="LOGO" style="rounded=1;whiteSpace=wrap;html=1;" vertex="1" parent="1">
          <mxGeometry x="525" y="620" width="90" height="100" as="geometry" />
        </mxCell>
        <mxCell id="LHKDKkBrintWugJR4YR0-65" value="VIEWS 1500" style="text;html=1;strokeColor=none;fillColor=none;align=center;verticalAlign=middle;whiteSpace=wrap;rounded=0;" vertex="1" parent="1">
          <mxGeometry x="615" y="630" width="80" height="20" as="geometry" />
        </mxCell>
        <mxCell id="LHKDKkBrintWugJR4YR0-66" value="" style="rounded=1;whiteSpace=wrap;html=1;" vertex="1" parent="1">
          <mxGeometry x="525" y="500" width="170" height="100" as="geometry" />
        </mxCell>
        <mxCell id="LHKDKkBrintWugJR4YR0-67" value="LOGO" style="rounded=1;whiteSpace=wrap;html=1;" vertex="1" parent="1">
          <mxGeometry x="525" y="500" width="90" height="100" as="geometry" />
        </mxCell>
        <mxCell id="LHKDKkBrintWugJR4YR0-68" value="VIEWS 1500" style="text;html=1;strokeColor=none;fillColor=none;align=center;verticalAlign=middle;whiteSpace=wrap;rounded=0;" vertex="1" parent="1">
          <mxGeometry x="615" y="510" width="80" height="20" as="geometry" />
        </mxCell>
        <mxCell id="LHKDKkBrintWugJR4YR0-69" value="" style="rounded=1;whiteSpace=wrap;html=1;" vertex="1" parent="1">
          <mxGeometry x="525" y="380" width="170" height="100" as="geometry" />
        </mxCell>
        <mxCell id="LHKDKkBrintWugJR4YR0-70" value="LOGO" style="rounded=1;whiteSpace=wrap;html=1;" vertex="1" parent="1">
          <mxGeometry x="525" y="380" width="90" height="100" as="geometry" />
        </mxCell>
        <mxCell id="LHKDKkBrintWugJR4YR0-71" value="VIEWS 1500" style="text;html=1;strokeColor=none;fillColor=none;align=center;verticalAlign=middle;whiteSpace=wrap;rounded=0;" vertex="1" parent="1">
          <mxGeometry x="615" y="390" width="80" height="20" as="geometry" />
        </mxCell>
        <mxCell id="LHKDKkBrintWugJR4YR0-37" value="" style="rounded=0;whiteSpace=wrap;html=1;strokeColor=#FFFFFF;rotation=-180;" vertex="1" parent="1">
          <mxGeometry x="5" y="810" width="815" height="548" as="geometry" />
        </mxCell>
        <mxCell id="LHKDKkBrintWugJR4YR0-38" value="" style="endArrow=none;html=1;" edge="1" parent="1">
          <mxGeometry width="50" height="50" relative="1" as="geometry">
            <mxPoint x="80" y="809" as="sourcePoint" />
            <mxPoint x="710" y="809" as="targetPoint" />
          </mxGeometry>
        </mxCell>
        <mxCell id="LHKDKkBrintWugJR4YR0-82" value="&lt;font style=&quot;font-size: 16px&quot;&gt;site Logo&lt;/font&gt;" style="text;html=1;strokeColor=none;fillColor=none;align=center;verticalAlign=middle;whiteSpace=wrap;rounded=0;" vertex="1" parent="1">
          <mxGeometry x="90" y="30" width="110" height="30" as="geometry" />
        </mxCell>
        <mxCell id="LHKDKkBrintWugJR4YR0-83" value="&lt;font style=&quot;font-size: 14px&quot;&gt;likes 2500&lt;/font&gt;" style="text;html=1;strokeColor=none;fillColor=none;align=center;verticalAlign=middle;whiteSpace=wrap;rounded=0;" vertex="1" parent="1">
          <mxGeometry x="185" y="410" width="70" height="20" as="geometry" />
        </mxCell>
        <mxCell id="LHKDKkBrintWugJR4YR0-84" value="&lt;font style=&quot;font-size: 14px&quot;&gt;likes 2500&lt;/font&gt;" style="text;html=1;strokeColor=none;fillColor=none;align=center;verticalAlign=middle;whiteSpace=wrap;rounded=0;" vertex="1" parent="1">
          <mxGeometry x="185" y="530" width="70" height="20" as="geometry" />
        </mxCell>
        <mxCell id="LHKDKkBrintWugJR4YR0-85" value="&lt;font style=&quot;font-size: 14px&quot;&gt;likes 2500&lt;/font&gt;" style="text;html=1;strokeColor=none;fillColor=none;align=center;verticalAlign=middle;whiteSpace=wrap;rounded=0;" vertex="1" parent="1">
          <mxGeometry x="185" y="650" width="70" height="20" as="geometry" />
        </mxCell>
        <mxCell id="LHKDKkBrintWugJR4YR0-86" value="&lt;font style=&quot;font-size: 14px&quot;&gt;likes 2500&lt;/font&gt;" style="text;html=1;strokeColor=none;fillColor=none;align=center;verticalAlign=middle;whiteSpace=wrap;rounded=0;" vertex="1" parent="1">
          <mxGeometry x="185" y="770" width="70" height="20" as="geometry" />
        </mxCell>
        <mxCell id="LHKDKkBrintWugJR4YR0-87" value="&lt;font style=&quot;font-size: 14px&quot;&gt;likes 2500&lt;/font&gt;" style="text;html=1;strokeColor=none;fillColor=none;align=center;verticalAlign=middle;whiteSpace=wrap;rounded=0;" vertex="1" parent="1">
          <mxGeometry x="405" y="770" width="70" height="20" as="geometry" />
        </mxCell>
        <mxCell id="LHKDKkBrintWugJR4YR0-88" value="&lt;font style=&quot;font-size: 14px&quot;&gt;likes 2500&lt;/font&gt;" style="text;html=1;strokeColor=none;fillColor=none;align=center;verticalAlign=middle;whiteSpace=wrap;rounded=0;" vertex="1" parent="1">
          <mxGeometry x="405" y="650" width="70" height="20" as="geometry" />
        </mxCell>
        <mxCell id="LHKDKkBrintWugJR4YR0-89" value="&lt;font style=&quot;font-size: 14px&quot;&gt;likes 2500&lt;/font&gt;" style="text;html=1;strokeColor=none;fillColor=none;align=center;verticalAlign=middle;whiteSpace=wrap;rounded=0;" vertex="1" parent="1">
          <mxGeometry x="400" y="530" width="70" height="20" as="geometry" />
        </mxCell>
        <mxCell id="LHKDKkBrintWugJR4YR0-90" value="&lt;font style=&quot;font-size: 14px&quot;&gt;likes 2500&lt;/font&gt;" style="text;html=1;strokeColor=none;fillColor=none;align=center;verticalAlign=middle;whiteSpace=wrap;rounded=0;" vertex="1" parent="1">
          <mxGeometry x="400" y="410" width="70" height="20" as="geometry" />
        </mxCell>
        <mxCell id="LHKDKkBrintWugJR4YR0-91" value="&lt;font style=&quot;font-size: 14px&quot;&gt;likes 2500&lt;/font&gt;" style="text;html=1;strokeColor=none;fillColor=none;align=center;verticalAlign=middle;whiteSpace=wrap;rounded=0;" vertex="1" parent="1">
          <mxGeometry x="620" y="770" width="70" height="20" as="geometry" />
        </mxCell>
        <mxCell id="LHKDKkBrintWugJR4YR0-92" value="&lt;font style=&quot;font-size: 14px&quot;&gt;likes 2500&lt;/font&gt;" style="text;html=1;strokeColor=none;fillColor=none;align=center;verticalAlign=middle;whiteSpace=wrap;rounded=0;" vertex="1" parent="1">
          <mxGeometry x="620" y="650" width="70" height="20" as="geometry" />
        </mxCell>
        <mxCell id="LHKDKkBrintWugJR4YR0-93" value="&lt;font style=&quot;font-size: 14px&quot;&gt;likes 2500&lt;/font&gt;" style="text;html=1;strokeColor=none;fillColor=none;align=center;verticalAlign=middle;whiteSpace=wrap;rounded=0;" vertex="1" parent="1">
          <mxGeometry x="620" y="530" width="70" height="20" as="geometry" />
        </mxCell>
        <mxCell id="LHKDKkBrintWugJR4YR0-94" value="&lt;font style=&quot;font-size: 14px&quot;&gt;likes 2500&lt;/font&gt;" style="text;html=1;strokeColor=none;fillColor=none;align=center;verticalAlign=middle;whiteSpace=wrap;rounded=0;" vertex="1" parent="1">
          <mxGeometry x="620" y="410" width="70" height="20" as="geometry" />
        </mxCell>
      </root>
    </mxGraphModel>
  </diagram>
</mxfile>
